<svg width="2727" height="2962" viewBox="0 0 2727 2962" fill="none" xmlns="http://www.w3.org/2000/svg">
<path d="M2088.4 2740.36C2083.43 2744.6 2078.31 2748.73 2073.13 2752.81H1444.27C1440.67 2748.73 1437.05 2744.6 1433.5 2740.36C1404.46 2705.55 1378.9 2667.98 1357.18 2628.19C1305.55 2535.21 1287.76 2413.32 1287.76 2289.17C1287.76 2281.59 1287.82 2274.01 1287.97 2266.42C1288.55 2231.6 1290.49 2196.72 1293.36 2162.41C1293.89 2156.45 1294.41 2150.54 1294.98 2144.63C1299.64 2095.42 1306.18 2047.52 1313.61 2002.76C1314.55 1997.06 1315.49 1991.41 1316.48 1985.82C1331.62 1896.91 1351.92 1808.96 1377.27 1722.42C1377.27 1722.42 1378.1 1722.62 1379.72 1723.04C1384.38 1724.35 1395.52 1727.44 1411.9 1732.3C1456.98 1745.69 1541.67 1772.67 1639.33 1812.78C1644.67 1814.92 1650.06 1817.17 1655.5 1819.47C1738.12 1853.52 1818.09 1893.67 1894.76 1939.59C1899.52 1942.47 1904.22 1945.39 1908.93 1948.32V1948.74L1898.63 2282.22L1990.69 2004.59C2009.47 2018.87 2027.41 2033.67 2044.52 2048.99C2049.22 2053.17 2053.93 2057.46 2058.48 2061.9C2097.34 2097.51 2130.51 2138.87 2156.82 2184.53C2294.55 2432.77 2236.75 2615.27 2088.4 2740.36Z" fill="#F2F2F2"/>
<path d="M1999.45 2752.81H1982.73C1982.62 2748.67 1982.47 2744.54 1982.2 2740.36C1975.46 2614.89 1921.69 2476.34 1848.47 2342.6C1845.86 2337.74 1843.2 2332.77 1840.37 2327.91C1804.84 2264.31 1765.22 2202.07 1724.31 2142.91C1721.17 2138.31 1717.93 2133.66 1714.69 2129.05C1660.23 2051.28 1604 1979.31 1553.21 1917.86C1549.65 1913.46 1546 1909.18 1542.39 1904.94C1467.08 1814.56 1404.95 1748.71 1380.02 1722.88C1376.31 1719.06 1373.43 1716.13 1371.45 1714.09C1369.62 1712.1 1368.52 1711.06 1368.31 1710.85L1374.17 1704.99L1374.22 1704.83L1380.18 1698.97C1380.39 1699.24 1383.99 1702.69 1390.37 1709.33C1395.75 1714.82 1403.12 1722.51 1412.16 1732.13C1443.72 1765.61 1495.93 1822.56 1556.34 1894.79C1559.84 1898.98 1563.45 1903.32 1567.05 1907.66C1608.29 1957.5 1652.97 2013.99 1697.23 2074.71C1708.36 2089.98 1719.16 2105.13 1729.64 2120.16C1732.93 2124.76 1736.17 2129.37 1739.3 2133.97C1783.57 2197.88 1822.22 2259.35 1855.27 2318.39L1863.52 2333.19C1947.77 2486.96 1993.13 2623.15 1998.98 2740.36C1999.19 2744.54 1999.35 2748.67 1999.45 2752.81Z" fill="white"/>
<path d="M1649.08 1799.87C1646.1 1804.03 1643.05 1808.13 1639.86 1812.18C1615.82 1843.27 1587.81 1871.05 1556.56 1894.82C1552 1898.19 1547.33 1901.66 1542.56 1905.03C1529.55 1914.14 1516.08 1922.56 1502.2 1930.28C1445.01 1962.23 1381.58 1981.33 1316.31 1986.24C1314.21 1986.46 1312.06 1986.61 1309.97 1986.72C1309.02 1992.35 1308.13 1997.98 1307.14 2003.71C1309.23 2003.6 1311.33 2003.5 1313.43 2003.29C1382.57 1998.77 1449.84 1978.88 1510.38 1945.06C1525.19 1936.81 1539.55 1927.79 1553.41 1918.02C1558.13 1914.7 1562.74 1911.23 1567.3 1907.76C1600.73 1882.28 1630.59 1852.4 1656.06 1818.91C1659.1 1814.86 1662.08 1810.76 1665.02 1806.66C1659.57 1804.34 1654.27 1802.08 1649.08 1799.87Z" fill="white"/>
<path d="M1900.49 1927.27C1898.66 1931.25 1896.72 1935.18 1894.78 1939.11C1857.48 2013.53 1800.33 2076.16 1729.67 2120.07C1724.75 2123.16 1719.78 2126.15 1714.71 2128.98C1713.19 2129.87 1711.57 2130.81 1710.05 2131.65C1646.88 2166.74 1576.24 2186.22 1504.03 2188.45C1431.82 2190.68 1360.12 2175.61 1294.9 2144.48C1293.33 2143.75 1291.82 2143.01 1290.3 2142.28C1289.72 2148.25 1289.2 2154.22 1288.78 2160.25C1290.25 2160.93 1291.77 2161.66 1293.28 2162.29C1360.37 2193.25 1433.8 2207.94 1507.62 2205.18C1581.44 2202.41 1653.57 2182.26 1718.16 2146.37C1720.25 2145.21 1722.29 2144.06 1724.33 2142.86C1729.41 2139.92 1734.43 2136.94 1739.35 2133.9C1811.77 2088.7 1870.43 2024.5 1908.96 1948.27C1911 1944.35 1912.94 1940.36 1914.82 1936.33C1910.06 1933.29 1905.3 1930.26 1900.49 1927.27Z" fill="white"/>
<path d="M2047.58 2037.34C2046.69 2041.32 2045.8 2045.29 2044.8 2049.21C2017.89 2159.61 1950.38 2255.83 1855.7 2318.7C1850.83 2321.99 1845.81 2325.13 1840.79 2328.22C1835.4 2331.46 1830.01 2334.7 1824.47 2337.74C1739.26 2384.88 1641.16 2403.43 1544.62 2390.63C1448.08 2377.84 1358.2 2334.38 1288.22 2266.66C1287.02 2265.57 1285.87 2264.42 1284.72 2263.26C1284.72 2271.06 1284.67 2278.74 1284.77 2286.48C1285.82 2287.48 1286.92 2288.47 1288.01 2289.41C1360.87 2355.4 1452.55 2396.96 1550.21 2408.26C1647.87 2419.56 1746.62 2400.04 1832.63 2352.43C1838.17 2349.4 1843.61 2346.26 1848.9 2342.91C1854.02 2339.88 1858.99 2336.74 1863.96 2333.5C1959.99 2269.99 2029.32 2173.41 2058.77 2062.13C2059.76 2058.37 2060.76 2054.6 2061.65 2050.78C2057.1 2046.18 2052.34 2041.84 2047.58 2037.34Z" fill="white"/>
<path d="M1783.6 1399.85H0V62.4171H1783.6V1399.85Z" fill="white"/>
<path d="M432.199 341.549C471.41 341.549 503.196 309.78 503.196 270.591C503.196 231.403 471.41 199.634 432.199 199.634C392.989 199.634 361.203 231.403 361.203 270.591C361.203 309.78 392.989 341.549 432.199 341.549Z" fill="#E6E6E6"/>
<path d="M596.167 223.286C593.032 223.292 590.028 224.541 587.814 226.758C585.599 228.975 584.355 231.98 584.355 235.113C584.355 238.246 585.599 241.25 587.814 243.468C590.028 245.685 593.032 246.933 596.167 246.939H1460.09C1463.23 246.933 1466.23 245.685 1468.45 243.468C1470.66 241.25 1471.9 238.246 1471.9 235.113C1471.9 231.98 1470.66 228.975 1468.45 226.758C1466.23 224.541 1463.23 223.292 1460.09 223.286H596.167Z" fill="#E6E6E6"/>
<path d="M596.166 294.244C593.028 294.237 590.016 295.477 587.792 297.69C585.568 299.903 584.315 302.909 584.309 306.045C584.302 309.182 585.542 312.192 587.757 314.415C589.971 316.637 592.978 317.89 596.116 317.896H1142.3C1143.85 317.899 1145.4 317.595 1146.83 317.002C1148.27 316.409 1149.58 315.538 1150.68 314.44C1151.78 313.342 1152.65 312.037 1153.25 310.601C1153.85 309.165 1154.15 307.625 1154.15 306.07C1154.15 304.515 1153.85 302.976 1153.25 301.54C1152.65 300.103 1151.78 298.799 1150.68 297.7C1149.58 296.602 1148.27 295.731 1146.83 295.138C1145.4 294.545 1143.85 294.241 1142.3 294.244H596.166Z" fill="#E6E6E6"/>
<path d="M1783.6 1399.85H0V62.4171H1783.6V1399.85ZM19.9629 1379.9H1763.63V82.3693H19.9629V1379.9Z" fill="#E6E6E6"/>
<path d="M99.6895 470.278V1265.76H1683.91V470.278H99.6895ZM1676.29 667.245H1289.76V477.891H1676.29V667.245ZM895.606 667.245V477.891H1282.14V667.245H895.606ZM1282.14 674.858V864.213H895.606V674.858H1282.14ZM887.989 667.245H501.456V477.891H887.989V667.245ZM887.989 674.858V864.213H501.456V674.858H887.989ZM493.839 864.213H107.306V674.858H493.839V864.213ZM493.839 871.825V1061.18H107.306V871.825H493.839ZM501.456 871.825H887.989V1061.18H501.456V871.825ZM887.989 1068.79V1258.15H501.456V1068.79H887.989ZM895.606 1068.79H1282.14V1258.15H895.606V1068.79ZM895.606 1061.18V871.825H1282.14V1061.18H895.606ZM1289.76 871.825H1676.29V1061.18H1289.76V871.825ZM1289.76 864.213V674.858H1676.29V864.213H1289.76ZM493.839 477.891V667.245H107.306V477.891H493.839ZM107.306 1068.79H493.839V1258.15H107.306V1068.79ZM1289.76 1258.15V1068.79H1676.29V1258.15H1289.76Z" fill="#E4E4E4"/>
<path d="M750.025 684.287L592.393 680.72C576.625 619.675 583.724 561.551 596.306 507.99L753.938 511.556C737.994 567.869 736.647 627.311 750.025 684.287Z" fill="#101010"/>
<path d="M623.312 546.164L623.396 540.169L705.063 543.085L704.976 549.08L623.312 546.164Z" fill="white"/>
<path d="M622.97 570.143L623.054 564.148L704.717 567.067L704.633 573.062L622.97 570.143Z" fill="white"/>
<path d="M622.623 594.121L622.711 588.127L704.374 591.046L704.29 597.041L622.623 594.121Z" fill="white"/>
<path d="M622.281 618.1L622.365 612.105L704.032 615.025L703.945 621.019L622.281 618.1Z" fill="white"/>
<path d="M621.938 642.079L622.021 636.084L703.688 639.003L703.601 644.998L621.938 642.079Z" fill="white"/>
<path d="M407.286 1125.8L249.653 1122.23C233.886 1061.19 240.985 1003.06 253.567 949.5L411.199 953.067C395.254 1009.38 393.908 1068.82 407.286 1125.8Z" fill="#F0F0F0"/>
<path d="M280.574 987.675L280.658 981.68L362.325 984.596L362.237 990.59L280.574 987.675Z" fill="white"/>
<path d="M280.231 1011.65L280.315 1005.66L361.979 1008.58L361.895 1014.57L280.231 1011.65Z" fill="white"/>
<path d="M279.885 1035.63L279.972 1029.64L361.636 1032.56L361.552 1038.55L279.885 1035.63Z" fill="white"/>
<path d="M279.542 1059.61L279.626 1053.62L361.293 1056.54L361.205 1062.53L279.542 1059.61Z" fill="white"/>
<path d="M279.199 1083.59L279.283 1077.59L360.95 1080.51L360.862 1086.51L279.199 1083.59Z" fill="white"/>
<path d="M1229.86 924.073L1072.23 920.506C1056.46 859.461 1063.56 801.337 1076.14 747.776L1233.77 751.342C1217.83 807.655 1216.48 867.097 1229.86 924.073Z" fill="#F0F0F0"/>
<path d="M1103.15 785.95L1103.23 779.956L1184.9 782.871L1184.81 788.866L1103.15 785.95Z" fill="white"/>
<path d="M1102.8 809.929L1102.89 803.934L1184.55 806.853L1184.47 812.848L1102.8 809.929Z" fill="white"/>
<path d="M1102.46 833.907L1102.55 827.913L1184.21 830.832L1184.13 836.827L1102.46 833.907Z" fill="white"/>
<path d="M1102.12 857.886L1102.2 851.891L1183.87 854.811L1183.78 860.805L1102.12 857.886Z" fill="white"/>
<path d="M1101.77 881.865L1101.86 875.87L1183.52 878.789L1183.44 884.784L1101.77 881.865Z" fill="white"/>
<path d="M1161.31 886.012L1003.68 882.445C987.912 821.4 995.011 763.276 1007.59 709.714L1165.22 713.281C1149.28 769.594 1147.93 829.036 1161.31 886.012Z" fill="#101010"/>
<path d="M1034.6 747.889L1034.68 741.894L1116.35 744.81L1116.26 750.804L1034.6 747.889Z" fill="white"/>
<path d="M1034.26 771.868L1034.34 765.873L1116 768.792L1115.92 774.787L1034.26 771.868Z" fill="white"/>
<path d="M1033.91 795.846L1034 789.851L1115.66 792.771L1115.58 798.765L1033.91 795.846Z" fill="white"/>
<path d="M1033.57 819.825L1033.65 813.83L1115.32 816.749L1115.23 822.744L1033.57 819.825Z" fill="white"/>
<path d="M1033.22 843.803L1033.31 837.809L1114.98 840.728L1114.89 846.723L1033.22 843.803Z" fill="white"/>
<path d="M1742.7 1233.7L1585.06 1230.13C1569.3 1169.09 1576.39 1110.96 1588.98 1057.4L1746.61 1060.97C1730.66 1117.28 1729.32 1176.72 1742.7 1233.7Z" fill="#101010"/>
<path d="M1615.98 1095.57L1616.07 1089.58L1697.74 1092.5L1697.65 1098.49L1615.98 1095.57Z" fill="white"/>
<path d="M1615.64 1119.55L1615.72 1113.56L1697.39 1116.48L1697.3 1122.47L1615.64 1119.55Z" fill="white"/>
<path d="M1615.29 1143.54L1615.38 1137.54L1697.05 1140.46L1696.96 1146.45L1615.29 1143.54Z" fill="white"/>
<path d="M1614.95 1167.51L1615.04 1161.52L1696.7 1164.44L1696.62 1170.43L1614.95 1167.51Z" fill="white"/>
<path d="M1614.61 1191.49L1614.69 1185.5L1696.36 1188.42L1696.27 1194.41L1614.61 1191.49Z" fill="white"/>
<path d="M1572.6 714.736L1414.97 711.169C1399.2 650.124 1406.3 592 1418.88 538.438L1576.51 542.005C1560.57 598.318 1559.22 657.76 1572.6 714.736Z" fill="#F0F0F0"/>
<path d="M1445.89 576.613L1445.97 570.619L1527.64 573.534L1527.55 579.529L1445.89 576.613Z" fill="white"/>
<path d="M1445.54 600.592L1445.63 594.597L1527.29 597.516L1527.21 603.511L1445.54 600.592Z" fill="white"/>
<path d="M1445.2 624.57L1445.28 618.576L1526.95 621.495L1526.86 627.49L1445.2 624.57Z" fill="white"/>
<path d="M1444.85 648.549L1444.94 642.554L1526.61 645.473L1526.52 651.468L1444.85 648.549Z" fill="white"/>
<path d="M1444.51 672.528L1444.6 666.533L1526.26 669.452L1526.17 675.447L1444.51 672.528Z" fill="white"/>
<path d="M1734.2 1106.4C1739.63 1105.07 1744.71 1102.55 1749.07 1099.04C1753.43 1095.53 1756.96 1091.11 1759.43 1086.08C1761.89 1081.06 1763.22 1075.56 1763.33 1069.96C1763.43 1064.37 1762.31 1058.82 1760.04 1053.7L1859.43 960.8L1790.67 944.284L1706.83 1035.04C1698.49 1039.43 1692.04 1046.72 1688.72 1055.53C1685.4 1064.35 1685.42 1074.07 1688.8 1082.87C1692.17 1091.67 1698.66 1098.92 1707.02 1103.26C1715.39 1107.6 1725.06 1108.72 1734.2 1106.4Z" fill="#FFB6B6"/>
<path d="M1785.54 1031.57L1739.19 966.25L1913.29 786.271L1953.72 502.579C1955.72 488.557 1960.78 475.146 1968.55 463.298C1976.32 451.451 1986.6 441.458 1998.66 434.029C2010.73 426.6 2024.29 421.917 2038.37 420.312C2052.45 418.708 2066.71 420.221 2080.14 424.745C2104.39 432.942 2124.39 450.419 2135.76 473.34C2147.13 496.261 2148.94 522.754 2140.79 547.006L2037.65 852.859L1785.54 1031.57Z" fill="#E4E4E4"/>
<path d="M2112.44 2240.35L2060.99 2240.35L2036.51 2041.98L2112.46 2041.99L2112.44 2240.35Z" fill="#FFB6B6"/>
<path d="M2628.73 2011.45L2601.88 2055.33L2419.8 1972.72L2459.43 1907.97L2628.73 2011.45Z" fill="#FFB6B6"/>
<path d="M2726.52 2038.79L2707.47 2069.92L2674.66 2057.51L2695.36 2089.71L2644.84 2172.29C2642.42 2176.25 2638.79 2179.33 2634.49 2181.08C2630.2 2182.84 2625.45 2183.17 2620.95 2182.04C2616.45 2180.91 2612.43 2178.37 2609.47 2174.79C2606.52 2171.21 2604.79 2166.78 2604.53 2162.15L2599.32 2068.36L2569.59 2050.19L2616.17 1983.36L2726.52 2038.79Z" fill="#101010"/>
<path d="M2134.12 2169.71H2027.78V1791.25L1961.95 1544.52C1914.7 1368.07 1902.15 1184.13 1924.98 1002.9L1925.07 1002.16L1925.64 1001.68C1927.33 1000.26 2095.83 861.016 2202.4 967.535C2274.24 1039.34 2206.74 1297.51 2202.96 1311.68V1756.75L2134.12 2169.71Z" fill="#101010"/>
<path d="M1892.59 1071.65L1926.87 729.095C1922.41 719.754 1858.32 660.585 1925.34 556.554L1997.72 386.733L2133.29 384.627L2133.86 385.198C2165.75 417.003 2189.27 456.201 2202.33 499.297C2215.38 542.394 2217.56 588.049 2208.68 632.193L2168.74 831.814L2203.35 970.182L1892.59 1071.65Z" fill="#E4E4E4"/>
<path d="M2120.15 1849.07L2462.96 2005.85L2505.75 1912.4L2160.3 1679.07L2120.15 1849.07Z" fill="#101010"/>
<path d="M2052.84 352.213C2121.97 352.213 2178.01 296.201 2178.01 227.106C2178.01 158.011 2121.97 101.998 2052.84 101.998C1983.71 101.998 1927.66 158.011 1927.66 227.106C1927.66 296.201 1983.71 352.213 2052.84 352.213Z" fill="#FFB6B6"/>
<path opacity="0.1" d="M2022.07 679.615L2056.35 885.146L2022.07 1056.42H1953.52L1984.68 885.146L2022.07 679.615Z" fill="#101010"/>
<path d="M2054.77 1232.89C2058.94 1229.16 2062.23 1224.55 2064.42 1219.4C2066.62 1214.25 2067.65 1208.69 2067.46 1203.09C2067.27 1197.5 2065.85 1192.02 2063.31 1187.04C2060.76 1182.05 2057.16 1177.68 2052.75 1174.24L2096.66 1045.51L2028.22 1063.29L1997.01 1182.81C1991.71 1190.61 1989.46 1200.07 1990.69 1209.41C1991.91 1218.75 1996.51 1227.32 2003.63 1233.5C2010.75 1239.67 2019.89 1243.02 2029.32 1242.91C2038.74 1242.8 2047.8 1239.23 2054.77 1232.89Z" fill="#FFB6B6"/>
<path d="M2064.81 1142.71L1993.15 1106.9L2061.96 866.186L1963.98 596.884C1959.14 583.572 1957.29 569.359 1958.56 555.251C1959.83 541.144 1964.19 527.49 1971.34 515.258C1978.48 503.025 1988.24 492.515 1999.9 484.474C2011.57 476.432 2024.86 471.056 2038.84 468.727C2064.1 464.548 2089.98 470.553 2110.81 485.423C2131.64 500.294 2145.71 522.815 2149.95 548.046L2203.04 866.413L2064.81 1142.71Z" fill="#E4E4E4"/>
<path d="M2539.67 220.988C2523.88 246.612 2490.43 257.907 2460.76 252.777C2431.09 247.647 2405.31 228.507 2386.26 205.195C2367.22 181.882 2354.05 154.442 2341.09 127.279C2328.12 100.115 2315.01 72.6539 2296.07 49.2646C2277.12 25.8749 2251.47 6.58797 2221.84 1.21596C2205.72 -1.7076 2187.46 0.222549 2175.69 11.6236C2167.58 20.169 2163.15 31.5566 2163.36 43.3336C2158.23 41.5293 2152.74 41.0133 2147.37 41.8312C2141.99 42.6491 2136.9 44.7757 2132.54 48.0236C2128.19 51.2715 2124.69 55.5411 2122.38 60.4558C2120.06 65.3705 2118.99 70.7796 2119.25 76.2063C2118.81 76.1979 2118.38 76.1688 2117.94 76.1688C2062.74 44.8001 1978.95 63.0228 1978.95 97.2779C1948.66 97.2779 1911.63 127.176 1911.63 172.577C1974.27 172.577 2011.14 252.79 1974.57 310.304C1965.13 324.974 1954.72 339 1943.42 352.288H2021.75C2028.32 342.864 2032.28 331.873 2033.24 320.426C2036.12 330.826 2037.84 341.511 2038.37 352.288C2038.37 352.288 2252.33 379.844 2197.11 166.691C2200.76 166.508 2204.32 165.432 2207.46 163.555C2215.8 158.532 2220.34 147.908 2221.13 137.128C2223.2 137.68 2225.26 138.23 2227.31 138.779C2242.03 142.751 2257.32 147.897 2267.42 159.311C2284.5 178.601 2280.91 207.879 2287.11 232.88C2294.59 263.028 2316.96 287.414 2341.81 306.066C2368.51 326.105 2399.7 341.33 2432.94 344.491C2466.18 347.651 2501.55 337.548 2524.58 313.386C2547.61 289.224 2555.64 250.301 2539.67 220.988Z" fill="#101010"/>
<path d="M2137 2353.76H2100.48L2093.97 2319.31L2077.28 2353.76H1980.44C1975.79 2353.76 1971.27 2352.28 1967.54 2349.53C1963.8 2346.78 1961.03 2342.91 1959.65 2338.48C1958.27 2334.05 1958.34 2329.3 1959.86 2324.91C1961.37 2320.52 1964.25 2316.74 1968.07 2314.1L2045.4 2260.72V2225.89L2126.74 2230.74L2137 2353.76Z" fill="#101010"/>
<path d="M2343.74 2820.78C2318.48 2820.78 2296.86 2815.43 2278.87 2804.72C2261.31 2793.59 2247.61 2777.74 2237.76 2757.19C2228.34 2736.64 2223.63 2712.01 2223.63 2683.33V2472.65H2327.04V2669.19C2327.04 2682.9 2329.19 2694.67 2333.47 2704.52C2337.75 2714.37 2344.17 2722.08 2352.74 2727.64C2361.3 2732.78 2371.58 2735.35 2383.57 2735.35C2392.56 2735.35 2400.7 2733.85 2407.98 2730.86C2415.68 2727.86 2422.11 2723.79 2427.24 2718.65C2432.81 2713.09 2437.09 2706.88 2440.09 2700.03C2443.09 2692.75 2444.59 2684.82 2444.59 2676.26V2472.65H2548V2813.71H2451.01L2446.51 2743.7L2465.78 2735.99C2460.64 2752.27 2452.08 2766.83 2440.09 2779.67C2428.1 2792.09 2413.76 2802.15 2397.06 2809.86C2380.36 2817.14 2362.59 2820.78 2343.74 2820.78Z" fill="#101010"/>
<path d="M1556.82 2820.78C1527.27 2820.78 1500.94 2813.29 1477.81 2798.3C1455.12 2782.88 1437.13 2761.9 1423.86 2735.35C1410.59 2708.38 1403.95 2677.76 1403.95 2643.5C1403.95 2609.25 1410.59 2578.84 1423.86 2552.29C1437.13 2525.32 1455.33 2504.12 1478.46 2488.71C1501.58 2473.29 1528.13 2465.58 1558.1 2465.58C1573.52 2465.58 1588.29 2467.94 1602.42 2472.65C1616.55 2477.36 1629.4 2483.78 1640.96 2491.92C1652.52 2500.05 1661.94 2509.47 1669.22 2520.18C1676.5 2530.46 1680.78 2541.16 1682.07 2552.29L1657.66 2558.07V2338.41H1761.07V2813.71H1665.37L1659.59 2735.99L1680.14 2739.21C1678.86 2749.91 1674.57 2760.19 1667.3 2770.04C1660.44 2779.89 1651.45 2788.66 1640.32 2796.37C1629.18 2803.65 1616.34 2809.43 1601.78 2813.71C1587.65 2818.42 1572.66 2820.78 1556.82 2820.78ZM1583.15 2735.35C1599 2735.35 1612.7 2731.5 1624.26 2723.79C1635.82 2716.08 1644.6 2705.38 1650.6 2691.68C1657.02 2677.97 1660.23 2661.91 1660.23 2643.5C1660.23 2624.66 1657.02 2608.39 1650.6 2594.69C1644.6 2580.98 1635.82 2570.28 1624.26 2562.57C1612.7 2554.86 1599 2551.01 1583.15 2551.01C1567.31 2551.01 1553.61 2554.86 1542.04 2562.57C1530.91 2570.28 1522.13 2580.98 1515.71 2594.69C1509.29 2608.39 1506.08 2624.66 1506.08 2643.5C1506.08 2661.91 1509.29 2677.97 1515.71 2691.68C1522.13 2705.38 1530.91 2716.08 1542.04 2723.79C1553.61 2731.5 1567.31 2735.35 1583.15 2735.35Z" fill="#101010"/>
<path d="M1084.23 2813.71V2472.65H1181.86L1185.07 2542.02L1164.52 2549.72C1169.23 2534.31 1177.58 2520.39 1189.57 2507.97C1201.99 2495.13 1216.76 2484.85 1233.89 2477.14C1251.02 2469.44 1269 2465.58 1287.84 2465.58C1313.53 2465.58 1335.16 2470.93 1352.72 2481.64C1370.27 2491.92 1383.55 2507.55 1392.54 2528.53C1401.53 2549.08 1406.03 2574.35 1406.03 2604.32V2813.71H1302.62V2612.67C1302.62 2598.97 1300.69 2587.62 1296.83 2578.63C1292.98 2569.64 1286.99 2563 1278.85 2558.72C1271.14 2554.01 1261.51 2551.87 1249.95 2552.29C1240.95 2552.29 1232.6 2553.79 1224.9 2556.79C1217.19 2559.36 1210.55 2563.43 1204.98 2568.99C1199.42 2574.13 1194.92 2580.13 1191.5 2586.98C1188.5 2593.83 1187 2601.32 1187 2609.46V2813.71H1136.26C1124.27 2813.71 1113.99 2813.71 1105.43 2813.71C1096.86 2813.71 1089.8 2813.71 1084.23 2813.71Z" fill="#101010"/>
<path d="M939.628 2820.14C901.946 2820.14 869.188 2812.64 841.355 2797.66C813.521 2782.24 791.897 2761.47 776.482 2735.35C761.066 2708.8 753.358 2678.61 753.358 2644.79C753.358 2618.67 757.64 2594.69 766.205 2572.85C774.769 2551.01 786.758 2532.17 802.174 2516.32C817.589 2500.05 835.788 2487.63 856.77 2479.07C878.18 2470.08 901.518 2465.58 926.782 2465.58C950.761 2465.58 972.6 2469.86 992.297 2478.43C1012.42 2486.99 1029.77 2498.98 1044.32 2514.4C1058.88 2529.81 1070.02 2548.01 1077.72 2568.99C1085.43 2589.98 1088.86 2612.89 1088 2637.72L1087.36 2665.34H815.662L800.889 2607.53H1003.86L992.94 2619.74V2606.89C992.083 2596.19 988.658 2586.76 982.663 2578.63C977.096 2570.06 969.602 2563.43 960.182 2558.72C950.761 2554.01 940.056 2551.65 928.066 2551.65C911.366 2551.65 897.022 2555.08 885.032 2561.93C873.47 2568.35 864.692 2577.99 858.697 2590.83C852.702 2603.25 849.705 2618.67 849.705 2637.08C849.705 2655.92 853.559 2672.41 861.266 2686.54C869.402 2700.24 880.964 2710.94 895.951 2718.65C911.366 2726.36 929.565 2730.21 950.547 2730.21C965.106 2730.21 977.953 2728.07 989.086 2723.79C1000.65 2719.51 1013.07 2712.23 1026.34 2701.95L1074.51 2770.04C1061.24 2781.6 1047.11 2791.02 1032.12 2798.3C1017.13 2805.58 1001.72 2810.93 985.874 2814.36C970.459 2818.21 955.043 2820.14 939.628 2820.14Z" fill="#101010"/>
<path d="M572.783 2961.45C544.95 2961.45 517.116 2957.38 489.283 2949.24C461.878 2941.11 439.611 2930.61 422.483 2917.77L458.452 2845.83C467.444 2851.82 477.293 2856.96 487.998 2861.24C499.132 2865.96 510.693 2869.59 522.683 2872.16C534.673 2874.73 546.877 2876.02 559.295 2876.02C581.133 2876.02 598.904 2872.81 612.606 2866.38C626.309 2859.96 636.586 2850.11 643.437 2836.84C650.288 2823.99 653.714 2807.72 653.714 2788.02V2730.86L673.626 2734.07C670.628 2748.2 663.135 2761.04 651.145 2772.61C639.583 2784.17 625.238 2793.59 608.11 2800.87C590.982 2807.72 572.783 2811.14 553.514 2811.14C522.683 2811.14 495.064 2804.08 470.656 2789.95C446.676 2775.39 427.621 2755.48 413.49 2730.21C399.788 2704.52 392.937 2674.98 392.937 2641.58C392.937 2607.32 399.788 2577.13 413.49 2551.01C427.193 2524.46 446.034 2503.69 470.014 2488.71C493.993 2473.29 520.97 2465.58 550.945 2465.58C563.791 2465.58 575.995 2467.08 587.556 2470.08C599.546 2473.08 610.465 2477.14 620.314 2482.28C630.591 2486.99 639.583 2492.77 647.291 2499.62C655.427 2506.05 661.85 2513.11 666.56 2520.82C671.699 2528.53 675.124 2536.45 676.837 2544.59L655.641 2549.72L659.495 2472.65H757.126V2786.09C757.126 2813.93 752.844 2838.55 744.28 2859.96C736.144 2881.8 723.94 2900.21 707.668 2915.2C691.824 2930.61 672.555 2942.18 649.86 2949.88C627.165 2957.59 601.473 2961.45 572.783 2961.45ZM575.352 2731.5C592.052 2731.5 606.397 2727.86 618.387 2720.58C630.805 2712.87 640.226 2702.38 646.649 2689.11C653.5 2675.83 656.926 2660.2 656.926 2642.22C656.926 2624.23 653.5 2608.6 646.649 2595.33C640.226 2581.63 630.805 2571.14 618.387 2563.86C606.397 2556.15 592.052 2552.29 575.352 2552.29C559.081 2552.29 544.95 2556.15 532.96 2563.86C520.97 2571.14 511.55 2581.63 504.698 2595.33C498.275 2608.6 495.064 2624.23 495.064 2642.22C495.064 2660.2 498.275 2675.83 504.698 2689.11C511.55 2702.38 520.97 2712.87 532.96 2720.58C544.95 2727.86 559.081 2731.5 575.352 2731.5Z" fill="#101010"/>
<path d="M0 2813.71L177.92 2364.1H270.412L447.047 2813.71H336.57L251.785 2585.69C248.36 2576.7 244.934 2567.07 241.508 2556.79C238.083 2546.51 234.657 2536.02 231.231 2525.32C227.806 2514.18 224.38 2503.48 220.954 2493.2C217.957 2482.5 215.388 2472.65 213.247 2463.66L232.516 2463.01C229.947 2473.72 226.949 2484.21 223.524 2494.49C220.526 2504.76 217.315 2515.04 213.889 2525.32C210.892 2535.17 207.466 2545.23 203.612 2555.51C199.758 2565.35 196.118 2575.63 192.693 2586.34L107.908 2813.71H0ZM84.7848 2727.64L118.827 2645.43H325.651L359.051 2727.64H84.7848Z" fill="#101010"/>
<path d="M1992.6 2813.71C1947.34 2813.71 1906.79 2803.53 1870.93 2783.16C1835.67 2762.2 1807.75 2733.97 1787.17 2698.46C1766.6 2662.38 1756.31 2621.34 1756.31 2575.36C1756.31 2529.37 1766.6 2488.63 1787.17 2453.12C1807.75 2417.03 1835.67 2388.8 1870.93 2368.43C1906.79 2347.48 1947.34 2337 1992.6 2337C2037.27 2337 2077.24 2347.48 2112.51 2368.43C2148.37 2388.8 2176.58 2417.03 2197.15 2453.12C2217.72 2488.63 2228.01 2529.37 2228.01 2575.36C2228.01 2621.34 2217.72 2662.38 2197.15 2698.46C2176.58 2733.97 2148.37 2762.2 2112.51 2783.16C2077.24 2803.53 2037.27 2813.71 1992.6 2813.71ZM1992.6 2731.64C2020.23 2731.64 2044.92 2724.95 2066.66 2711.56C2088.41 2697.59 2105.46 2678.97 2117.8 2655.68C2130.14 2631.82 2136.02 2605.04 2135.43 2575.36C2136.02 2545.09 2130.14 2518.31 2117.8 2495.03C2105.46 2471.17 2088.41 2452.54 2066.66 2439.15C2044.92 2425.77 2020.23 2419.07 1992.6 2419.07C1964.98 2419.07 1940 2426.06 1917.66 2440.03C1895.91 2453.41 1878.87 2472.04 1866.52 2495.9C1854.18 2519.19 1848.3 2545.67 1848.89 2575.36C1848.3 2605.04 1854.18 2631.82 1866.52 2655.68C1878.87 2678.97 1895.91 2697.59 1917.66 2711.56C1940 2724.95 1964.98 2731.64 1992.6 2731.64Z" fill="#101010"/>
<path fill-rule="evenodd" clip-rule="evenodd" d="M1992.16 2442.38C2017.11 2442.38 2037.33 2462.6 2037.33 2487.54V2577.87C2037.33 2602.81 2017.11 2623.03 1992.16 2623.03C1967.22 2623.03 1947 2602.81 1947 2577.87V2487.54C1947 2462.6 1967.22 2442.38 1992.16 2442.38Z" fill="#101010"/>
<path fill-rule="evenodd" clip-rule="evenodd" d="M2072.98 2640.72C2057.66 2660.41 2029.29 2663.95 2009.6 2648.64L1964.44 2613.52C1944.75 2598.2 1941.2 2569.83 1956.52 2550.14C1971.83 2530.45 2000.2 2526.9 2019.89 2542.22L2065.05 2577.34C2084.74 2592.66 2088.29 2621.03 2072.98 2640.72Z" fill="#101010"/>
</svg>
